<?xml version="1.0" standalone="no"?>
<!DOCTYPE svg PUBLIC "-//W3C//DTD SVG 20010904//EN"
 "http://www.w3.org/TR/2001/REC-SVG-20010904/DTD/svg10.dtd">
<svg version="1.0" xmlns="http://www.w3.org/2000/svg"
 width="512.000000pt" height="512.000000pt" viewBox="0 0 512.000000 512.000000"
 preserveAspectRatio="xMidYMid meet">
<metadata>
Created by potrace 1.14, written by Peter Selinger 2001-2017
</metadata>
<g transform="translate(0.000000,512.000000) scale(0.100000,-0.100000)"
fill="#000000" stroke="none">
<path d="M857 3660 c-186 -10 -339 -19 -341 -21 -3 -3 -57 -2121 -56 -2186 l0
-23 350 0 c193 0 350 1 350 3 1 1 16 255 35 565 18 310 35 565 37 567 2 2 100
-246 217 -551 118 -305 218 -557 222 -560 10 -6 802 67 810 75 4 3 30 451 58
996 28 545 54 1019 58 1054 l6 64 -187 -6 c-102 -4 -269 -10 -370 -13 l-184
-7 -7 -271 c-4 -149 -10 -388 -13 -530 l-7 -259 -270 561 -270 562 -50 -1
c-27 -1 -202 -9 -388 -19z"/>
<path d="M3125 3659 c-176 -9 -323 -18 -326 -18 -3 -1 -9 -106 -13 -233 -8
-277 -37 -871 -71 -1497 -14 -249 -24 -455 -22 -458 7 -6 781 29 788 36 4 3
12 269 18 591 12 591 20 727 47 834 35 137 102 216 182 216 36 0 58 -23 81
-86 38 -100 46 -187 46 -489 -1 -314 -8 -393 -70 -809 -19 -126 -34 -231 -32
-232 1 -1 203 -6 448 -10 l447 -7 7 194 c12 323 0 1075 -19 1205 -77 529 -285
784 -639 784 -152 0 -275 -55 -399 -178 l-68 -66 0 122 0 122 -42 -1 c-24 -1
-187 -10 -363 -20z"/>
</g>
</svg>
