<?xml version="1.0" standalone="no"?>
<!DOCTYPE svg PUBLIC "-//W3C//DTD SVG 20010904//EN"
 "http://www.w3.org/TR/2001/REC-SVG-20010904/DTD/svg10.dtd">
<svg version="1.0" xmlns="http://www.w3.org/2000/svg"
 width="260.000000pt" height="260.000000pt" viewBox="0 0 260.000000 260.000000"
 preserveAspectRatio="xMidYMid meet">
<metadata>
Created by potrace 1.14, written by Peter Selinger 2001-2017
</metadata>
<g transform="translate(0.000000,260.000000) scale(0.100000,-0.100000)"
fill="#000000" stroke="none">
<path d="M1189 2416 c-2 -2 -36 -7 -76 -10 -39 -4 -97 -15 -127 -26 -141 -50
-165 -60 -222 -91 -112 -62 -178 -111 -269 -204 -76 -77 -195 -230 -195 -251
0 -3 -13 -33 -29 -67 -29 -62 -75 -195 -86 -252 -25 -125 -25 -333 0 -450 12
-52 70 -214 98 -270 74 -151 230 -333 361 -421 77 -51 195 -115 225 -121 13
-2 37 -11 53 -19 78 -41 191 -58 368 -59 174 0 303 20 381 61 15 7 37 15 50
17 31 6 99 39 99 48 0 4 12 10 27 14 15 3 43 19 62 34 20 15 48 35 64 44 15
10 67 57 115 105 138 137 216 263 279 452 47 139 48 145 48 360 l0 185 -38
118 c-68 208 -139 327 -282 471 -148 149 -271 223 -495 296 -30 10 -75 21
-100 25 -49 7 -305 16 -311 11z"/>
</g>
</svg>
